<?xml version="1.0" encoding="UTF-8" standalone="no"?>
<!-- Created for Inkscape (http://www.inkscape.org/) -->

<svg
        xmlns:dc="http://purl.org/dc/elements/1.1/"
        xmlns:cc="http://creativecommons.org/ns#"
        xmlns:rdf="http://www.w3.org/1999/02/22-rdf-syntax-ns#"
        xmlns:sodipodi="http://sodipodi.sourceforge.net/DTD/sodipodi-0.dtd"
        xmlns:inkscape="http://www.inkscape.org/namespaces/inkscape"
        xmlns="http://www.w3.org/2000/svg"
        width="3200"
        height="800"
        id="svg2985"
        version="1.1"
        inkscape:version="0.48.1 r9760">
    <defs
            id="defs2987"/>
    <sodipodi:namedview
            id="base"
            pagecolor="#ffffff"
            bordercolor="#666666"
            borderopacity="1.0"
            inkscape:pageopacity="0.0"
            inkscape:pageshadow="2"
            inkscape:zoom="0.35"
            inkscape:cx="1600"
            inkscape:cy="400"
            inkscape:document-units="px"
            inkscape:current-layer="layer1"
            showgrid="false"/>
    <metadata
            id="metadata2990">
        <rdf:RDF>
            <cc:Work
                    rdf:about="">
                <dc:format>image/svg+xml</dc:format>
                <dc:type
                        rdf:resource="http://purl.org/dc/dcmitype/StillImage"/>
                <dc:title/>
            </cc:Work>
        </rdf:RDF>
    </metadata>
    <g
            inkscape:label="Layer 1"
            inkscape:groupmode="layer"
            id="layer1">
        <g
                style="stroke-width:2.5;stroke-miterlimit:4;stroke-dasharray:none;stroke:#000000;stroke-opacity:1;stroke-linejoin:round;stroke-linecap:round;fill:none">


            <path style="fill:none;stroke:black;stroke-width:2px;stroke-linejoin:round;stroke-linecap:round;" d="M
1687.7885 442.30978
1690.2888 433.2865
1698.5648 438.83813
1700.0317 430.42905
1708.5741 428.85678
1708.9888 437.62433
1741.1968 445.5344
1735.4006 462.79095
1753.5945 458.72067
1758.769 441.16895
1762.2179 422.09326
1745.7653 425.9118
1749.4165 402.46637
1765.8484 403.04633
1761.1964 382.75848
1759.2646 361.16245
1753.4429 333.8667
1737.9966 305.78577
1716.0562 278.35413
1682.9758 254.00568
1644.8075 237.882
1595.0914 231.85205
1544.0886 240.80981
1499.6031 262.75418
1462.1578 296.47647
1445.0343 328.08533
1438.4043 357.86227
1437.3618 380.4464
1436.2789 400.25946
1434.2439 419.06726
1452.4464 418.74008
1438.8584 437.19528
1456.6718 445.5532
1443.3018 455.3318
1449.191 471.68707
1457.7343 485.96765
1467.2649 500.42255
1475.9415 512.289
1486.9071 499.35632
1474.7811 484.41638
1464.5702 466.47668
1489.9518 457.46686
1487.7126 447.9221
1483.7683 438.31198
1486.7595 429.04797
1492.1804 437.79205
1497.1057 430.4681
1502.2363 437.879
1509.3688 433.8137
1511.8933 442.91025
1519.363 436.4848
1522.9058 444.98303
1529.817 438.65915
1534.2263 446.66577
1540.68 440.28
1545.6863 447.7148
1552.177 441.70688
1557.5762 448.78497
1563.9775 442.86752
1553.1409 384.88824
1560.5767 376.24435
1542.1008 384.1649
1533.7675 377.52792
1541.3069 370.60617
1549.9884 375.5152
1552.4307 364.81244
1541.0259 359.98785
1530.8604 366.97058
1532.0237 356.78766
1537.8436 348.54584
1546.5691 344.54425
1549.2191 354.0372
1555.9346 347.49847
1560.5107 356.25885
1563.2397 366.04523
1630.6953 360.58868
1633.9949 352.65735
1639.8264 346.175
1647.8158 344.36713
1656.1631 346.30334
1661.8213 352.6458
1656.1196 357.6661
1650.4812 352.03436
1642.669 353.97235
1638.5417 361.83722
1631.736 369.27145
1641.7632 370.49396
1648.106 362.724
1652.3279 373.11115
1657.0896 366.32733
1664.613 361.10632
1664.2206 370.10815
1661.0996 377.65402
1655.357 383.5838
1645.9407 378.42755
1634.4812 377.20358
1639.4581 384.18613
1647.7947 386.8513
1670.3788 437.7381
1680.4802 435.79526
1677.2748 444.53528
1666.3878 446.13715
1659.9626 439.46765
1655.3706 447.3025
1649.135 441.12048
1643.8943 449.10776
1638.9253 442.93332
1630.2507 442.72226
1630.1775 450.0923
1621.5619 444.2342
1616.6304 450.3236
1610.6929 443.8347
1604.9731 450.41986
1599.312 443.90955
1593.0896 450.14752
1587.7148 443.73938
1581.5526 449.86273
1575.814 443.34344
1569.752 449.52097
1581.0547 467.27856
1563.7498 466.64264
1548.4023 464.025
1540.6973 477.24164
1534.8209 487.11102
1530.866 497.09998
1526.698 506.53928
1519.2489 499.30905
1523.7397 488.7138
1530.4875 477.59503
1534.4136 463.2552
1522.1683 459.53595
1510.4707 457.33212
1499.6821 449.77368
1498.6371 461.57675
1493.3127 468.23328
1498.6377 477.4839
1504.2495 470.1777
1512.8728 472.16003
1522.5261 473.52243
1516.66 482.03265
1505.8894 483.75128
1511.4026 492.59506
1499.2915 513.1015
1486.842 522.95447
1498.9297 532.7838
1513.0219 524.78107
1528.0614 534.364
1511.2004 543.94714
1523.3254 549.04865
1535.8333 553.7731
1548.9401 559.11945
1562.0013 563.23883
1574.4639 566.0458
1586.9103 566.5735
1601.6758 566.92017
1613.7454 566.3474
1626.313 568.03064
1640.1217 562.84436
1654.3457 558.7691
1645.1843 549.89526
1651.5261 535.9019
1662.5376 544.48773
1668.0464 555.431
1679.288 545.35956
1690.3635 538.23956
1702.6023 530.4988
1714.145 521.0217
1699.0139 511.36313
1686.2395 521.94366
1671.6077 530.4706
1662.5281 509.96335
1670.6997 503.97726
1679.3372 496.77182
1686.0491 489.08282
1674.7839 485.1002
1669.6973 494.0553
1660.2648 498.01083
1653.7769 506.32794
1653.4265 488.48474
1663.3506 486.056
1666.7445 475.94113
1658.018 476.58704
1649.6354 478.75092
1641.1333 478.8148
1632.3376 480.72797
1623.1063 481.6953
1613.2074 482.01178
1603.0327 482.5359
1597.7738 492.05426
1609.0778 491.78375
1615.2823 500.868
1620.2684 491.59222
1631.119 490.96063
1641.9424 488.91217
1648.3188 497.8457
1637.7333 500.0544
1627.0715 501.17966
1621.2708 509.6261
1609.7756 510.22815
1603.6805 501.2433
1598.5929 510.8943
1594.2279 520.68286
1605.0859 520.1725
1600.9916 529.9419
1611.8184 529.2287
1615.7626 519.2715
1626.3282 518.1942
1633.7045 511.22296
1644.0667 509.13098
1653.0558 516.59973
1642.6292 519.7311
1633.7211 524.37683
1622.6533 527.6162
1631.9636 542.8219
1626.516 555.55365
1611.9722 549.60913
1595.2177 551.3119
1578.2229 550.4855
1561.3237 546.3796
1544.5831 540.7726
1551.0 521.55676
1560.7415 524.3485
1570.6293 525.1633
1579.1526 529.9223
1590.0769 530.1915
1583.0718 521.2796
1575.9802 513.78357
1565.5889 514.03284
1555.3846 512.7395
1543.8188 515.1555
1533.9403 514.4369
1538.2031 505.4099
1542.5352 495.64243
1549.1687 503.9006
1559.8207 502.43784
1570.304 503.37653
1580.9277 502.78906
1587.37 511.5298
1592.3116 501.72705
1586.728 492.46393
1575.9203 492.65533
1565.3739 492.3639
1554.2456 492.10315
1545.5382 486.06763
1551.9785 479.12695
1561.3534 481.83868
1571.6677 481.925
1581.8562 482.72388
1592.4275 482.54404
1600.4302 467.58737
1619.0215 466.79645
1635.8894 465.3465
1650.744 463.98193
1663.978 461.9668
1675.7332 458.62988
1687.2552 456.5912
1697.1486 451.11664
1707.245 447.02026
1705.4312 456.7309
1699.4229 463.02814
1699.7465 472.2932
1691.4243 469.74084
1682.9757 469.58435
1674.6335 473.23175
1682.9927 479.1262
1692.5474 480.39532
1708.9993 493.2689
1715.3723 507.86304
1729.084 506.5744
1725.2991 493.54428
1726.2781 477.46896
1738.794 489.52185
1746.4458 475.1361
"/>
        </g>
    </g>
</svg>
